# xmcd CD database file
#
# Track frame offsets:
#	150
#	20423
#	36927
#	52188
#	64460
#	78316
#	88525
#	103725
#	120436
#	138395
#	151766
#	166297
#
# Disc length: 2449 seconds
#
# Revision: 1
# Processed by: cddbd v1.5.2PL0 Copyright (c) Steve Scherf et al.
# Submitted via: CDex 1.94
#
DISCID=99098f0c
DTITLE=Curtis Harding - Soul Power
DYEAR=2014
DGENRE=Soul
TTITLE0=Next Time
TTITLE1=Castaway
TTITLE2=Keep On Shining
TTITLE3=Freedom
TTITLE4=Surf
TTITLE5=I Don't Wanna Go Home
TTITLE6=Beautiful People
TTITLE7=The Drive
TTITLE8=Heaven's On The Other Side
TTITLE9=Drive My Car
TTITLE10=I Need A Friend
TTITLE11=Cruel World
EXTD=YEAR: 2014
EXTT0=
EXTT1=
EXTT2=
EXTT3=
EXTT4=
EXTT5=
EXTT6=
EXTT7=
EXTT8=
EXTT9=
EXTT10=
EXTT11=
PLAYORDER=
